<svg width="136" height="41" xmlns="http://www.w3.org/2000/svg"><g fill="none"><path d="M0 35.9a2.953 2.953 0 01.734-1.982 2.626 2.626 0 012.1-.854 2.624 2.624 0 012.1.854 3.039 3.039 0 010 3.961 2.617 2.617 0 01-2.1.854 2.619 2.619 0 01-2.1-.854A2.942 2.942 0 010 35.9z" fill="#006DFF"/><path d="M14.54 35.8c0 1.8.7 2.54 2.413 2.54a8.747 8.747 0 001.517-.146c.585-.091.923.164.923.749v.311a.859.859 0 01-.713.933c-.7.172-1.418.26-2.139.264-2.7 0-4.579-1.516-4.579-4.651s1.883-4.662 4.579-4.662c.72.004 1.439.093 2.139.265a.859.859 0 01.713.932v.311c0 .585-.4.823-1.088.713a9.593 9.593 0 00-1.352-.119c-1.709-.002-2.413.76-2.413 2.56zm6.218 0c0-2.971 1.636-4.662 4.625-4.662s4.625 1.691 4.625 4.662-1.636 4.651-4.625 4.651-4.625-1.692-4.625-4.651zm6.672 0c0-1.774-.676-2.524-2.047-2.524s-2.048.75-2.048 2.524c0 1.755.677 2.512 2.048 2.512s2.047-.759 2.047-2.512zm18.604-.5v4.149a.762.762 0 01-.841.841h-.814a.761.761 0 01-.84-.841v-4.282c0-1.308-.558-1.893-1.764-1.893s-1.654.585-1.654 1.893v4.277a.762.762 0 01-.841.841h-.8a.762.762 0 01-.841-.841v-4.277c0-1.308-.448-1.893-1.654-1.893s-1.765.585-1.765 1.893v4.277a.76.76 0 01-.84.841h-.814a.762.762 0 01-.841-.841V35.3c0-3.053 1.582-4.159 4.04-4.159 1.627 0 2.578.466 3.117 1.289.531-.823 1.49-1.289 3.108-1.289 2.463-.005 4.044 1.101 4.044 4.159zM.687 16.181V1.747A1.3 1.3 0 012.128.306h1.536a1.305 1.305 0 011.442 1.441v13.634c0 .736.219 1.316 1.519 1.316h6.708a1.306 1.306 0 011.442 1.442v1.1a1.306 1.306 0 01-1.442 1.442H5.544c-3.369-.003-4.857-1.242-4.857-4.5zm27.355-1.788l-6.628.69c.563 1.756 1.99 2.382 4.074 2.382a15.582 15.582 0 003.589-.5c1.018-.236 1.63.2 1.63 1.222v.47a1.509 1.509 0 01-1.223 1.614 18.487 18.487 0 01-4.764.69c-4.749 0-7.929-2.586-7.929-7.977 0-5.092 2.7-7.992 7.96-7.992 4.419 0 7.037 2.069 7.037 5.986 0 2.194-.925 3.122-3.746 3.415zm-.376-3.823c0-1.489-.909-2.288-2.915-2.288-2.178 0-3.337.987-3.573 3.636l5.406-.549c.91-.094 1.082-.269 1.082-.799zm21.025.439v5.172c0 3.258-1.488 4.5-4.858 4.5h-3.557c-3.824 0-6.159-1.019-6.159-4.7 0-3.7 2.351-4.717 6.159-4.717h4.058v-.251c0-1.724-1.363-2.476-3.651-2.476-1.36.034-2.714.196-4.043.485-.987.189-1.583-.266-1.583-1.269V7.17a1.591 1.591 0 011.5-1.63c1.56-.342 3.15-.526 4.748-.549 4.252 0 7.386 1.802 7.386 6.018zm-4.357 4.952v-1.583H40.5c-1.9 0-2.288.438-2.288 1.6 0 1.143.391 1.583 2.272 1.583h2.287c1.344-.001 1.563-.55 1.563-1.6zm17.06-9.402v.908c0 .925-.549 1.442-1.583 1.458-3.29.047-3.432.329-3.432 1.5v8.807a1.3 1.3 0 01-1.441 1.442h-1.552a1.3 1.3 0 01-1.441-1.442V9.8c0-3.588 1.285-4.56 7.914-4.669a1.316 1.316 0 011.535 1.428zM79.1 12.238v7a1.306 1.306 0 01-1.443 1.444h-1.476a1.306 1.306 0 01-1.442-1.444v-7.062c0-2.761-1-3.53-3.358-3.53s-3.356.769-3.356 3.53v7.058a1.307 1.307 0 01-1.443 1.444h-1.475a1.307 1.307 0 01-1.443-1.444v-7c0-5.631 2.839-7.262 7.717-7.262S79.1 6.607 79.1 12.238z" fill="#000"/><path d="M81.9 18.685v-.595c0-1 .6-1.459 1.6-1.271 4 .738 8.533.738 8.533-1.82 0-.94-.565-1.662-2.761-2.557L87.31 11.6c-3.89-1.679-5.286-3.436-5.286-6.024 0-5.177 5.647-6.478 12.016-5 .774.12 1.323.82 1.254 1.6v.643a1.211 1.211 0 01-1.6 1.3c-3.765-.627-7.263-.675-7.263 1.381 0 .909.6 1.647 2.588 2.446l1.819.769c3.938 1.663 5.617 3.357 5.617 6.29 0 5.8-6.825 6.871-13.318 5.286a1.482 1.482 0 01-1.237-1.606zm17.009-8.204C98.909 3.643 102.751 0 108.461 0c5.71 0 9.553 3.639 9.553 10.477 0 6.838-3.843 10.479-9.553 10.479-5.71 0-9.552-3.635-9.552-10.475zm14.431 0c0-5.082-1.976-6.634-4.879-6.634-2.903 0-4.878 1.552-4.878 6.634 0 5.082 1.977 6.636 4.878 6.636s4.879-1.553 4.879-6.636zm1.773 16.864l-6.683-1.821a1.365 1.365 0 01-1.1-1.725v-.016a1.317 1.317 0 011.646-1.207l6.776.941a1.3 1.3 0 011.224 1.631l-.156 1.082a1.221 1.221 0 01-1.707 1.115zm6.408-11.169V1.728a1.306 1.306 0 011.443-1.442h1.536a1.306 1.306 0 011.443 1.442v13.648c0 .737.22 1.317 1.521 1.317h6.714a1.307 1.307 0 011.444 1.444v1.1a1.307 1.307 0 01-1.444 1.444h-7.8c-3.367-.003-4.857-1.243-4.857-4.505z" fill="#006DFF"/></g></svg>