<?xml version="1.0" encoding="UTF-8"?> <svg xmlns="http://www.w3.org/2000/svg" width="189" height="25" viewBox="0 0 189 25" fill="none"><path d="M18.7584 8.45236C18.7584 4.15999 15.8166 1.01962 10.9927 1.01962H1.01265C0.538166 1.01962 0.158578 1.39836 0.158578 1.87178V4.39671C0.158578 4.87013 0.538166 5.24887 1.01265 5.24887H5.09324H5.44119H10.2493C12.2263 5.24887 13.7131 6.49555 13.7131 8.43658C13.7131 10.3776 12.2263 11.6243 10.2493 11.6243H5.6468H5.07742H0.996838C0.522352 11.6243 0.142761 12.003 0.142761 12.4765V23.2705C0.142761 23.7439 0.522352 24.1227 0.996838 24.1227H4.22334C4.69783 24.1227 5.07742 23.7439 5.07742 23.2705V16.6899C5.07742 16.2165 5.45701 15.8378 5.93149 15.8378H8.19321C8.50954 15.8378 8.79423 16.0113 8.93657 16.2796L13.0013 23.665C13.1437 23.9333 13.4284 24.1069 13.7447 24.1069H17.4141C18.0783 24.1069 18.4737 23.3967 18.1416 22.8286L14.235 16.2165C13.9661 15.7589 14.1717 15.1907 14.662 15.0014C16.813 14.1177 18.7584 12.003 18.7584 8.45236Z" fill="#1C1F25"></path><path d="M35.0017 0.814697C28.4696 0.814697 23.187 6.10125 23.187 12.6029C23.187 19.1204 28.4854 24.3912 35.0017 24.3912C41.5338 24.3912 46.8164 19.1046 46.8164 12.6029C46.8164 6.08547 41.5179 0.814697 35.0017 0.814697ZM35.0017 19.8936C30.9685 19.8936 27.6946 16.627 27.6946 12.6029C27.6946 8.57883 30.9685 5.31222 35.0017 5.31222C39.0348 5.31222 42.3087 8.57883 42.3087 12.6029C42.3087 16.627 39.0348 19.8936 35.0017 19.8936Z" fill="#1C1F25"></path><path d="M136.336 23.4917V6.22752C136.336 5.7541 136.716 5.37536 137.19 5.37536L142.552 5.35958C143.026 5.35958 143.406 4.98084 143.406 4.50742L143.39 1.85625C143.39 1.38283 143.011 1.00409 142.536 1.00409L125.186 1.01987C124.711 1.01987 124.332 1.39861 124.332 1.87203L124.347 4.5232C124.347 4.99662 124.727 5.37536 125.202 5.37536L130.547 5.35958C131.022 5.35958 131.402 5.73832 131.402 6.21174V23.4917C131.402 23.9651 131.781 24.3438 132.256 24.3438H135.482C135.957 24.3438 136.336 23.9651 136.336 23.4917Z" fill="#1C1F25"></path><path d="M119.413 23.3654L119.397 20.7142C119.397 20.2408 119.017 19.8621 118.543 19.8621L107.725 19.8779C107.25 19.8779 106.871 19.4991 106.871 19.0257V14.2757C106.871 13.8023 107.25 13.4235 107.725 13.4235L114.273 13.4077C114.747 13.4077 115.127 13.029 115.127 12.5556L115.111 10.078C115.111 9.60458 114.731 9.22584 114.257 9.22584L107.74 9.24162C107.266 9.24162 106.886 8.86288 106.886 8.38946V6.18016C106.886 5.70673 107.266 5.32799 107.74 5.32799L118.575 5.31221C119.049 5.31221 119.429 4.93347 119.429 4.46005L119.413 1.82466C119.413 1.35124 119.033 0.972504 118.559 0.972504L102.806 0.988284C102.331 0.988284 101.952 1.36702 101.952 1.84045V23.3496C101.952 23.823 102.331 24.2018 102.806 24.2018H118.575C119.033 24.2176 119.413 23.8388 119.413 23.3654Z" fill="#1C1F25"></path><path d="M81.9126 9.19425V1.87197C81.9126 1.39855 81.533 1.01981 81.0585 1.01981L77.832 1.00403C77.3575 1.00403 76.9779 1.38277 76.9779 1.85619V23.3654C76.9779 23.8388 77.3575 24.2175 77.832 24.2175H81.0585C81.533 24.2175 81.9126 23.8388 81.9126 23.3654V16.3587C81.9126 16.1693 81.9917 15.98 82.1182 15.838L84.3641 13.5655C84.5539 13.3762 84.8702 13.4077 85.0126 13.6286L91.6238 23.8072C91.7819 24.044 92.0508 24.2018 92.3355 24.2018H95.4987C96.1788 24.2018 96.5743 23.4601 96.2105 22.892L88.2549 10.6619C88.0335 10.3305 88.0809 9.8886 88.3656 9.60455L95.4987 2.44008C96.0365 1.90354 95.6569 0.988251 94.8977 0.988251H91.1809C90.9595 0.988251 90.7381 1.08294 90.5799 1.24074L82.4345 9.3994C82.2289 9.60455 81.9126 9.46252 81.9126 9.19425Z" fill="#1C1F25"></path><path d="M67.5831 18.1735C66.0489 19.4676 63.9612 20.1461 61.7153 19.799C58.5204 19.294 55.9898 16.6428 55.626 13.4393C55.1357 9.05225 58.5678 5.32798 62.8857 5.32798C64.6729 5.32798 66.3178 5.975 67.5989 7.04809C67.9311 7.33214 68.4214 7.30058 68.7377 7.00075L70.7305 5.01237C71.0785 4.66519 71.0627 4.09709 70.6831 3.76569C68.3423 1.71419 65.179 0.562191 61.7469 0.877807C55.9898 1.41435 51.4031 6.18015 51.0868 11.9401C50.7072 18.7574 56.1321 24.4069 62.8857 24.4069C65.8749 24.4069 68.6112 23.2865 70.6831 21.4717C71.0469 21.1403 71.0785 20.5722 70.7305 20.225L68.7377 18.2367C68.4214 17.9053 67.931 17.8895 67.5831 18.1735Z" fill="#1C1F25"></path><path d="M149.59 24.3438C148.91 24.3438 148.357 23.7915 148.357 23.1129V21.0772C148.357 20.3986 148.91 19.8463 149.59 19.8463H158.511C160.424 19.8463 161.769 18.6312 161.784 16.8795C161.784 16.8637 161.784 16.8479 161.784 16.8322C161.784 16.8164 161.784 16.8006 161.784 16.7848C161.769 15.0332 160.44 13.818 158.511 13.818H149.59C148.91 13.818 148.357 13.2657 148.357 12.5871V10.5514C148.357 9.87285 148.91 9.32053 149.59 9.32053H159.222C163.92 9.32053 167.067 12.3347 167.067 16.8322C167.067 21.3297 163.92 24.3438 159.222 24.3438H149.59Z" fill="#1C1F25"></path><path d="M170.879 24.3438C170.199 24.3438 169.645 23.7915 169.645 23.1129V21.0772C169.645 20.3986 170.199 19.8463 170.879 19.8463H179.799C181.713 19.8463 183.057 18.6312 183.073 16.8795C183.073 16.8637 183.073 16.8479 183.073 16.8322C183.073 16.8164 183.073 16.8006 183.073 16.7848C183.057 15.0332 181.729 13.818 179.799 13.818H170.879C170.199 13.818 169.645 13.2657 169.645 12.5871V10.5514C169.645 9.87285 170.199 9.32053 170.879 9.32053H180.511C185.208 9.32053 188.356 12.3347 188.356 16.8322C188.356 21.3297 185.208 24.3438 180.511 24.3438H170.879Z" fill="#1C1F25"></path><path d="M149.131 7.60041C148.72 7.60041 148.372 7.25324 148.372 6.84294V2.29807C148.372 1.60372 148.942 1.05139 149.622 1.05139H164.315C165.011 1.05139 165.564 1.6195 165.564 2.29807V4.31801C165.564 5.01237 164.995 5.56469 164.315 5.56469H153.354V6.84294C153.354 7.25324 153.006 7.60041 152.595 7.60041H149.131Z" fill="#1C1F25"></path><path d="M170.483 7.60041C170.072 7.60041 169.724 7.25324 169.724 6.84294V2.29807C169.724 1.60372 170.294 1.05139 170.974 1.05139H185.667C186.363 1.05139 186.916 1.6195 186.916 2.29807V4.31801C186.916 5.01237 186.347 5.56469 185.667 5.56469H174.706V6.84294C174.706 7.25324 174.358 7.60041 173.947 7.60041H170.483Z" fill="#1C1F25"></path></svg> 