<svg xmlns="http://www.w3.org/2000/svg" width="20" height="17"  xmlns:v="https://vecta.io/nano"><path d="M12.685.719c-1.739.633-2.839 2.265-2.713 4.051l.041.689-.695-.085c-2.532-.323-4.745-1.42-6.624-3.262l-.919-.915-.236.675c-.5 1.505-.179 3.095.864 4.164.556.591.43.675-.529.325-.333-.113-.627-.198-.653-.155-.098.099.235 1.378.5 1.886.362.704 1.1 1.393 1.906 1.801l.683.324-.808.012c-.779 0-.807.014-.723.31.278.915 1.378 1.886 2.602 2.308l.863.296-.751.451c-1.114.648-2.421 1.014-3.731 1.039-.626.015-1.141.07-1.141.113 0 .14 1.699.927 2.685 1.239 2.964.914 6.484.519 9.129-1.042 1.879-1.111 3.756-3.321 4.634-5.46.473-1.139.946-3.221.946-4.22 0-.647.042-.731.82-1.505.459-.45.891-.942.975-1.082.14-.269.125-.269-.584-.029-1.183.423-1.35.367-.765-.266.431-.451.947-1.267.947-1.506 0-.041-.209.029-.446.155-.251.141-.807.352-1.225.478l-.751.239-.682-.466c-.376-.252-.903-.535-1.182-.619-.711-.197-1.796-.169-2.437.057" fill="#fff" fill-rule="evenodd"/></svg>