<svg xmlns="http://www.w3.org/2000/svg" xmlns:xlink="http://www.w3.org/1999/xlink" width="20" height="19" xmlns:v="https://vecta.io/nano"><defs><path id="A" d="M0 37h36.999V0H0z"/></defs><g transform="translate(-8.5 -8)" fill-rule="evenodd"><mask id="B" fill="#fff"><use xlink:href="#A"/></mask><path d="M9.647 26.094h3.891V14.387H9.647v11.707zm1.946-13.306c1.356 0 2.201-.9 2.201-2.022-.024-1.149-.845-2.023-2.177-2.023s-2.2.873-2.2 2.021c0 1.124.845 2.023 2.151 2.023h.025v.001zM27.57 26.094v-6.712c0-3.596-1.919-5.27-4.479-5.27-2.067 0-2.991 1.136-3.506 1.933v-1.658h-3.892c.051 1.099 0 11.707 0 11.707h3.892v-6.538c0-.349.024-.699.128-.949.28-.698.921-1.422 1.995-1.422 1.409 0 1.973 1.072 1.973 2.646v6.264l3.889-.001z" fill="#fff" mask="url(#B)"/></g></svg>