<svg xmlns="http://www.w3.org/2000/svg" width="19" height="19"  fill="#fff" xmlns:v="https://vecta.io/nano"><path d="M18.943 5.583c-.046-1.011-.207-1.702-.442-2.306-.238-.634-.612-1.208-1.096-1.683-.474-.483-1.049-.857-1.683-1.096-.604-.235-1.295-.395-2.306-.441L9.5 0 5.583.057C4.572.103 3.882.264 3.277.499c-.634.238-1.208.612-1.683 1.096-.483.474-.857 1.049-1.096 1.683-.235.604-.395 1.295-.441 2.306L0 9.5l.057 3.917c.046 1.011.207 1.702.442 2.306.238.634.612 1.208 1.096 1.683.474.483 1.049.857 1.683 1.096.604.235 1.295.395 2.306.442L9.5 19l3.917-.057c1.011-.046 1.702-.207 2.306-.442 1.276-.493 2.285-1.502 2.778-2.778.235-.604.395-1.295.442-2.306L19 9.5l-.057-3.917zm-1.71 7.756c-.042.926-.197 1.429-.327 1.764-.32.829-.974 1.483-1.803 1.803-.335.13-.838.285-1.764.327l-3.839.055c-2.537 0-2.837-.01-3.839-.055-.926-.042-1.429-.197-1.764-.327-.413-.152-.786-.395-1.092-.711-.316-.306-.558-.68-.711-1.092-.13-.335-.285-.838-.327-1.764L1.712 9.5l.055-3.839c.042-.926.197-1.429.327-1.764.152-.413.395-.786.711-1.092a2.94 2.94 0 0 1 1.092-.711c.335-.13.838-.285 1.764-.327L9.5 1.712l3.839.056c.926.042 1.429.197 1.764.327.413.152.786.395 1.092.711a2.94 2.94 0 0 1 .711 1.092c.13.335.285.838.327 1.764l.055 3.839-.055 3.839zM9.5 4.622A4.88 4.88 0 0 0 4.622 9.5 4.88 4.88 0 0 0 9.5 14.378 4.88 4.88 0 0 0 14.378 9.5 4.88 4.88 0 0 0 9.5 4.622zm0 8.045c-1.749 0-3.167-1.418-3.166-3.167S7.751 6.333 9.5 6.333A3.17 3.17 0 0 1 12.667 9.5 3.17 3.17 0 0 1 9.5 12.667zm6.211-8.238a1.14 1.14 0 1 1-2.28 0 1.14 1.14 0 1 1 2.28 0h0z"/></svg>